# xmcd
#
# Track frame offsets:
#	150
#	10886
#	25281
#	37012
#	49838
#	59130
#	70840
#	84146
#	94880
#	104411
#	116721
#	128151
#	139624
#	150825
#	160291
#	171904
#
# Disc length: 2427 seconds
#
# Revision: 1
# Processed by: cddbd v1.5.2PL0 Copyright (c) Steve Scherf et al.
# Submitted via: audiograbber 1.83.01
#
DISCID=d4097910
DTITLE=Various Artist - We Got The Blues For You
DYEAR=1999
DGENRE=Blues
TTITLE0=Frankie Lee Sims - What Will Lucy Do?
TTITLE1=Buddy Guy - The Way You Have Been Treating Me
TTITLE2=Sammy Myers - Sleeping In The Ground
TTITLE3=Charles Brown - Black Night
TTITLE4=H-Bomb Ferguson - Josephine
TTITLE5=Lightnin' Slim - Lightnin' Slim Boogie
TTITLE6=Arthur 'Big Boy' Crudup - Mean Old World
TTITLE7=Mercy Baby - Marked Deck
TTITLE8=Frankie Lee Sims - She Likes To Boogie Real Slow
TTITLE9=Floyd Dixon - Floyd's After Hours
TTITLE10=Charles Brown and Amos Milburn - I Wanna Go Home
TTITLE11=Joe Hill Louis - Get Up Off It
TTITLE12=Al Collins - I Got The Blues For You
TTITLE13=Floyd Dixon - Way Down In Louisiana
TTITLE14=Buddy Guy - Baby Don't You Wanna Come Home
TTITLE15=Joe Hill Louis - Joe Hill Boogie
EXTD=Richmond Records RMOND 3008
EXTT0=
EXTT1=
EXTT2=
EXTT3=
EXTT4=
EXTT5=
EXTT6=
EXTT7=
EXTT8=
EXTT9=
EXTT10=
EXTT11=
EXTT12=
EXTT13=
EXTT14=
EXTT15=
PLAYORDER=
